<?xml version="1.0" standalone="yes"?>
<svg xmlns="http://www.w3.org/2000/svg" width="1020" height="712">
<path style="fill:#1f1f23; stroke:none;" d="M0 0L0 516L1 516C1.54554 489.569 15.9362 463.423 26.6914 440C45.4206 399.211 66.2065 359.393 81.3079 317C91.8215 287.486 100.402 257.74 106.551 227C115.405 182.738 120.446 137.328 142.309 97C152.581 78.0518 167.224 60.5031 184 47.0007C199.081 34.8629 215.268 24.7016 233 16.8619C324.154 -23.4399 413.032 21.0405 497 56C484.049 64.8771 487.957 81.15 488.91 95C489.235 99.7149 488.161 107.698 491.603 111.486C494.826 115.034 502.569 114.909 507 115C509.729 97.7928 518.037 80.5989 534 73C532.792 81.9735 527.755 91.8637 530.653 100.996C532.426 106.584 538.398 109.093 539.659 114.999C541.512 123.681 535.672 132.675 538.893 140.996C540.705 145.674 545.539 147.137 548.142 151.104C555.358 162.102 544.442 171.998 563 172L562 177L557 176C556.782 181.007 554.693 185.996 555.2 191C556.02 199.101 559.196 205.414 558.985 214C558.351 239.893 555.452 267.702 563 293L558 291C558.031 302.409 563.755 311.745 564.83 323C565.589 330.935 567.649 340.369 567.722 348C567.86 362.286 559.931 377.54 574.375 388.142C579.203 391.686 589.174 391.75 595 392C593.765 420.772 585.271 449.337 582.468 478C581.998 482.801 584.101 487.239 584.276 492C584.777 505.709 584 520.178 584 534C584 557.739 592.159 573.686 569 590L569 591C578.338 589.743 600.395 585.965 605.987 577.61C609.649 572.138 607.582 563.179 608.17 557C609.896 538.856 611 520.238 611 502L887 502L887 382C887 363.764 883.339 341.037 890 324C883.694 317.824 887 300.436 887 292L887 204L641 204C641.629 198.331 641.102 185.65 636.348 181.644C628.718 175.213 617.416 188.198 615 194L634 198L628 217L659 217L659 228L692 223L711 333L650 342.92L627.434 345.802L623 330L573 330L573 217L598 217C604.658 198.711 621.093 185.814 622 165L596 174.844L580 176C578.892 171.607 574.747 166.591 575.539 162C577.295 151.821 588.76 146.985 581.911 135.001C576.082 124.803 567.057 127.786 558.004 124.258C555.453 123.264 551.727 120.423 552.613 117.227C554.282 111.203 569.304 113.531 574 112.829C580.698 111.829 586.097 103.513 592 103.484C595.724 103.466 598.427 107.668 602 108.552C607.974 110.029 622.436 109.018 627.956 106.231C636.345 101.998 632.913 92.287 633.054 85C633.196 77.6403 635.075 70.2811 636 63C642.241 66.9623 651.738 71.7907 655.775 78.0903C663.114 89.5403 661.108 110.993 661 124C684.132 124.993 708.011 129.731 731 132.718C836.569 146.437 960.941 174.695 1005.2 285C1012.2 302.451 1018.95 321.993 1019 341L1020 341L1020 0L0 0z"/>
<path style="fill:#f0f2f5; stroke:none;" d="M441 632C441 625.337 440.454 618.501 442.156 612C443.432 607.128 447.576 600.27 446.589 595.185C445.859 591.428 440.828 589.562 438 587.641C432.651 584.008 426.401 578.888 423.457 573C418.918 563.923 420.348 541.083 426.638 533.105C430.659 528.005 437.594 526.169 441.682 520.961C445.913 515.57 442.474 508.877 448 504L448 503L329 503L299 503L287.603 501.397L286 482L286 426L286 204L477 204L478.83 167L482.303 153.604L493 153C494.248 141.498 499.299 130.275 497.812 118.058C497.258 113.504 491.583 113.104 489.894 108.956C488.512 105.564 489.136 101.569 488.715 98C487.251 85.6038 483.7 64.1899 496 57L496 55C412.313 20.1578 321.539 -24.1473 231 17.3087C214.08 25.0558 198.518 34.5629 184 46.1998C167.174 59.6868 152.6 77.0159 142.309 96C120.446 136.328 115.405 181.738 106.551 226C100.402 256.74 91.8215 286.486 81.3079 316C70.1354 347.364 56.2307 378.055 41.7415 408C15.1861 462.882 -15.1045 519.258 8.81096 581C13.7728 593.81 20.4449 605.83 28.4275 617C38.6776 631.343 50.9006 643.929 65 654.525C118.093 694.423 204.416 717.209 269 694.655C300.291 683.728 321.484 656.532 351 642.486C380.008 628.682 410.101 631.997 441 632M592 22L593 23L592 22z"/>
<path style="fill:#c85f56; stroke:none;" d="M593 22L594 23L593 22z"/>
<path style="fill:#a19da1; stroke:none;" d="M596 22L597 23L596 22z"/>
<path style="fill:#f0f2f5; stroke:none;" d="M581 23L582 24L581 23z"/>
<path style="fill:#a19da1; stroke:none;" d="M607 25L608 26L607 25M561 26L562 27L561 26z"/>
<path style="fill:#f0f2f5; stroke:none;" d="M559 27L560 28L559 27M613 31L614 32L613 31z"/>
<path style="fill:#a19da1; stroke:none;" d="M554 32L555 33L554 32z"/>
<path style="fill:#f0f2f5; stroke:none;" d="M616 35L617 36L616 35z"/>
<path style="fill:#c85f56; stroke:none;" d="M496 56L497 57L496 56z"/>
<path style="fill:#a19da1; stroke:none;" d="M494 57L495 58L494 57z"/>
<path style="fill:#c85f56; stroke:none;" d="M493 58L494 59L493 58z"/>
<path style="fill:#a19da1; stroke:none;" d="M491 59L492 60L491 59M490 60L491 61L490 60M489 61L490 62L489 61z"/>
<path style="fill:#c85f56; stroke:none;" d="M636 63L637 64L636 63z"/>
<path style="fill:#a19da1; stroke:none;" d="M488 64L488 67L489 67L488 64M636 64L637 65L636 64z"/>
<path style="fill:#f0f2f5; stroke:none;" d="M637 64C633.036 75.7109 637.542 90.077 632.991 100.985C629.739 108.778 622.795 105.606 617.439 109.603C613.572 112.49 610.988 116.809 606.996 119.699C596.401 127.369 585.437 127.572 573 126L573 127C577.429 129.299 587.788 138.421 586.447 144.374C585.042 150.608 577.688 154.73 576.333 161C575.295 165.803 578.719 170.551 580 175C596.71 175 607.485 168.469 623 164L617 184C622.174 183.236 629.672 178.684 634.786 179.928C641.535 181.57 641.319 197.685 643 203L644 203L649 178L650 178C650 182.963 647.311 200.933 652.318 203.397C657.221 205.809 666.604 204 672 204L719 204L888 204L888 294C888 301.267 884.717 319.469 891 324L891 326C886.963 328.617 888 333.606 888 338L888 370L888 503L612 503L611 520C615.184 519.848 618.564 521.607 619.682 526.004C622.529 537.196 622.703 561.877 619.566 572.985C618.029 578.428 613.448 579.266 609 577L608 577C598.77 584.581 602.97 594.268 603 605C611.238 607.501 608.966 627.005 609.214 634.424C609.327 637.81 609.585 641.753 606.58 644.062C602.159 647.46 593.373 648.107 588 649.199C573.228 652.201 558.094 655.352 543 656L543 657C565.586 663.178 587.576 675.742 609 685.139C653.614 704.706 707.531 720.662 756 706.279C808.497 690.701 847.779 645.322 883.169 606C957.996 522.86 1052.87 413.92 1009.05 294C1003.02 277.506 995.364 261.433 985.279 247C927.317 164.05 818.442 141.951 724 131.834C703.21 129.607 681.878 124.431 661 124C661.325 108.266 661.844 89.5801 655 75L637 64z"/>
<path style="fill:#a19da1; stroke:none;" d="M638 64L639 65L638 64M639 65L640 66L639 65z"/>
<path style="fill:#c85f56; stroke:none;" d="M640 65L641 66L640 65M635 66L636 67L635 66z"/>
<path style="fill:#a19da1; stroke:none;" d="M641 66L642 67L641 66M635 67L635 70L636 70L635 67M642 67L643 68L642 67M643 68L644 69L643 68M644 69L645 70L644 69M645.667 70.3333L646.333 70.6667L645.667 70.3333M648 71L649 72L648 71M634 72L634 77L635 77L634 72M649.667 72.3333L650.333 72.6667L649.667 72.3333z"/>
<path style="fill:#c85f56; stroke:none;" d="M533 73L534 74L533 73z"/>
<path style="fill:#a19da1; stroke:none;" d="M651 73L652 74L651 73M530.667 74.3333L531.333 74.6667L530.667 74.3333z"/>
<path style="fill:#f0f2f5; stroke:none;" d="M532 74C517.831 80.9298 508.054 100.21 508 116L505 115L504 141L511 141L519.776 178L516.653 207L528.996 232L538 294C546.269 290.815 553.53 288.259 562 292C556.707 263.507 558.149 234.843 557.999 206C557.969 200.164 554.883 195.576 554.502 190C554.17 185.131 555.986 179.986 556 175L562 176C560.895 170.843 553.733 174.274 550.5 169.917C546.787 164.912 550.553 157.514 548.5 152C546.937 147.801 541.965 146.586 539.5 143C535.064 136.546 538.673 128.868 540 122L537 121L540 118L538 110L536 112L527 98L528 98L529 102L530 102L532 74z"/>
<path style="fill:#a19da1; stroke:none;" d="M533 74L533 77L534 77L533 74M652 74L653 75L652 74M528 75L529 76L528 75M653 75L654 76L653 75M526 76L527 77L526 76M525 77L526 78L525 77M523 78L524 79L523 78M532 78L532 81L533 81L532 78M522 79L523 80L522 79M521 80L522 81L521 80z"/>
<path style="fill:#c85f56; stroke:none;" d="M633 80L633 83L634 83L633 80z"/>
<path style="fill:#a19da1; stroke:none;" d="M520 81L521 82L520 81M519 82L520 83L519 82M531.333 82.6667L531.667 83.3333L531.333 82.6667M633 83L633 87L634 87L633 83M518 84L519 85L518 84z"/>
<path style="fill:#c85f56; stroke:none;" d="M531 84L532 85L531 84z"/>
<path style="fill:#a19da1; stroke:none;" d="M517 86L518 87L517 86M530.333 86.6667L530.667 87.3333L530.333 86.6667z"/>
<path style="fill:#c85f56; stroke:none;" d="M633 87L633 91L634 91L633 87z"/>
<path style="fill:#a19da1; stroke:none;" d="M516 88L517 89L516 88z"/>
<path style="fill:#c85f56; stroke:none;" d="M530 88L531 89L530 88z"/>
<path style="fill:#a19da1; stroke:none;" d="M515.333 90.6667L515.667 91.3333L515.333 90.6667M529 90L529 100L530 100L529 90z"/>
<path style="fill:#c85f56; stroke:none;" d="M488.333 91.6667L488.667 92.3333L488.333 91.6667z"/>
<path style="fill:#a19da1; stroke:none;" d="M488 93L488 97L489 97L488 93M514 93L515 94L514 93M513.333 95.6667L513.667 96.3333L513.333 95.6667M512 98L513 99L512 98M527 98L536 112L537 112L538 109L531 101L527 98z"/>
<path style="fill:#c85f56; stroke:none;" d="M633 98L634 99L633 98z"/>
<path style="fill:#a19da1; stroke:none;" d="M633.333 99.6667L633.667 100.333L633.333 99.6667M511.333 100.667L511.667 101.333L511.333 100.667z"/>
<path style="fill:#c85f56; stroke:none;" d="M556 114C571.028 133.589 606.086 129.896 617 108L602 108.219L592 102.867L578 111.517L556 114z"/>
<path style="fill:#a19da1; stroke:none;" d="M632 102L633 103L632 102M510.333 103.667L510.667 104.333L510.333 103.667z"/>
<path style="fill:#c85f56; stroke:none;" d="M531 103L532 104L531 103M489 104L490 105L489 104z"/>
<path style="fill:#a19da1; stroke:none;" d="M631 104L632 105L631 104M489 105L489 109L490 109L489 105z"/>
<path style="fill:#c85f56; stroke:none;" d="M509 105L510 106L509 105M629 105L630 106L629 105z"/>
<path style="fill:#a19da1; stroke:none;" d="M630 105L631 106L630 105M509 106L510 107L509 106M628 106L629 107L628 106z"/>
<path style="fill:#c85f56; stroke:none;" d="M508 107L509 108L508 107M535 107L536 108L535 107z"/>
<path style="fill:#a19da1; stroke:none;" d="M624 107L624 108L627 108L624 107M617 108L618 109L617 108M507 109L508 110L507 109M616.333 109.667L616.667 110.333L616.333 109.667z"/>
<path style="fill:#c85f56; stroke:none;" d="M507 110L508 111L507 110M538 110L539 111L538 110z"/>
<path style="fill:#a19da1; stroke:none;" d="M490 111L491 112L490 111M538 111L539 112L538 111M615 111L616 112L615 111M491 112L492 113L491 112z"/>
<path style="fill:#c85f56; stroke:none;" d="M507 112L508 113L507 112z"/>
<path style="fill:#a19da1; stroke:none;" d="M614 112L615 113L614 112M493.667 113.333L494.333 113.667L493.667 113.333M507 113L506 116L507 113M539 113L539 116L540 116L539 113M613 113L614 114L613 113M497 114C499.115 123.205 498.231 138.583 494 147L505 142L505 115L497 114z"/>
<path style="fill:#c85f56; stroke:none;" d="M500 114L501 115L500 114z"/>
<path style="fill:#a19da1; stroke:none;" d="M554 114L554 115L559 118L554 114M552 115L553 116L552 115z"/>
<path style="fill:#f0f2f5; stroke:none;" d="M572 126C569.452 124.064 555.268 113.675 553.137 116.661C547.922 123.964 569.057 125.454 572 126z"/>
<path style="fill:#a19da1; stroke:none;" d="M612 115L613 116L612 115M611 116L612 117L611 116M551.333 117.667L551.667 118.333L551.333 117.667M609 117L610 118L609 117M538 118L540 122L540 118L538 118M560 118L561 119L560 118M608 118L609 119L608 118M552 119L553 120L552 119M561 119L562 120L561 119M607 119L608 120L607 119z"/>
<path style="fill:#c85f56; stroke:none;" d="M552 120L553 121L552 120z"/>
<path style="fill:#a19da1; stroke:none;" d="M562 120L563 121L562 120M605.667 120.333L606.333 120.667L605.667 120.333z"/>
<path style="fill:#c85f56; stroke:none;" d="M540 121L541 122L540 121z"/>
<path style="fill:#a19da1; stroke:none;" d="M553 121L554 122L553 121M564 121L565 122L564 121M604 121L605 122L604 121M554 122L555 123L554 122M565.667 122.333L566.333 122.667L565.667 122.333M602 122L603 123L602 122M555.667 123.333L556.333 123.667L555.667 123.333M567.667 123.333L568.333 123.667L567.667 123.333M600 123L601 124L600 123M539.333 124.667L539.667 125.333L539.333 124.667z"/>
<path style="fill:#c85f56; stroke:none;" d="M557 124L558 125L557 124z"/>
<path style="fill:#a19da1; stroke:none;" d="M558 124L558 125L561 125L558 124M570 124L571 125L570 124M597.667 124.333L598.333 124.667L597.667 124.333z"/>
<path style="fill:#c85f56; stroke:none;" d="M566 125L567 126L566 125z"/>
<path style="fill:#a19da1; stroke:none;" d="M567 125L567 126L570 126L567 125M572 127L575 126L572 127M594 125L594 126L597 126L594 125z"/>
<path style="fill:#c85f56; stroke:none;" d="M539 126L540 127L539 126M571 126L572 127L571 126z"/>
<path style="fill:#a19da1; stroke:none;" d="M576 126L576 127L580 127L576 126M589 126L589 127L593 127L589 126M574 127L575 128L574 127M538.333 128.667L538.667 129.333L538.333 128.667M576 128L577 129L576 128M577 129L578 130L577 129z"/>
<path style="fill:#c85f56; stroke:none;" d="M538 130L539 131L538 130z"/>
<path style="fill:#a19da1; stroke:none;" d="M578 130L579 131L578 130M579 131L580 132L579 131M580 132L581 133L580 132M585 132L584 137L585 137L587 133L585 132M537 133L537 139L538 139L537 133M581 133L582 134L581 133z"/>
<path style="fill:#1f1f23; stroke:none;" d="M585 133L585 138L586 138L585 133z"/>
<path style="fill:#c85f56; stroke:none;" d="M586 133L587 134L586 133z"/>
<path style="fill:#a19da1; stroke:none;" d="M582 135L583 136L582 135M587 135L588 136L587 135M583 137L584 138L583 137M586 137L587 138L586 137z"/>
<path style="fill:#c85f56; stroke:none;" d="M583 138L584 139L583 138z"/>
<path style="fill:#a19da1; stroke:none;" d="M538.333 140.667L538.667 141.333L538.333 140.667M584 140L586 147L584 140z"/>
<path style="fill:#c85f56; stroke:none;" d="M505 141L506 142L505 141z"/>
<path style="fill:#1f1f23; stroke:none;" d="M491 204L287 204L287 502L404 502C422.308 502 444.179 498.757 462 503L461 509L537 502L532 515L516 518L516 519L552 526L545 489L496 489L496 387L527 387L527 382L543 384L543 372L547 371L534.909 330L538.404 297.09L533.853 263L529.268 252L525.931 223L515.738 206L518.96 178L510 141C505.063 141.393 498.84 141.916 495.564 146.133C491.822 150.951 493.124 158.332 492.985 164C492.659 177.311 491.001 190.672 491 204z"/>
<path style="fill:#a19da1; stroke:none;" d="M510 141L510 144L511 144L510 141z"/>
<path style="fill:#1f1f23; stroke:none;" d="M585 141L585 146L586 146L585 141z"/>
<path style="fill:#a19da1; stroke:none;" d="M586 141L587 142L586 141z"/>
<path style="fill:#c85f56; stroke:none;" d="M500 142L501 143L500 142z"/>
<path style="fill:#a19da1; stroke:none;" d="M539 143L540 144L539 143M587 143L588 144L587 143z"/>
<path style="fill:#c85f56; stroke:none;" d="M510 144L511 145L510 144z"/>
<path style="fill:#a19da1; stroke:none;" d="M540 144L541 145L540 144z"/>
<path style="fill:#c85f56; stroke:none;" d="M541 145L542 146L541 145M586 145L587 146L586 145z"/>
<path style="fill:#a19da1; stroke:none;" d="M511 146L512 147L511 146M542 146L543 147L542 146M544 147L545 148L544 147M493 148L494 149L493 148M512 148L513 149L512 148M546 148L547 149L546 148M583.333 148.667L583.667 149.333L583.333 148.667z"/>
<path style="fill:#c85f56; stroke:none;" d="M493.333 149.667L493.667 150.333L493.333 149.667z"/>
<path style="fill:#a19da1; stroke:none;" d="M513 149L514 150L513 149M547 149L548 150L547 149M548.333 150.667L548.667 151.333L548.333 150.667M514 151L515 152L514 151M582 151L583 152L582 151M477 204L491 204L493 153L481.564 153.603L478.715 167L477 204z"/>
<path style="fill:#c85f56; stroke:none;" d="M514 152L515 153L514 152z"/>
<path style="fill:#a19da1; stroke:none;" d="M581 152L582 153L581 152M549 153L549 169L550 169L549 153M580 154L581 155L580 154M579 155L580 156L579 155M578 156L579 157L578 156M515 157L515 162L516 162L515 157M577 157L578 158L577 157M576 158L577 159L576 158M575 160L575 165L576 165L575 160z"/>
<path style="fill:#c85f56; stroke:none;" d="M515 162L516 163L515 162z"/>
<path style="fill:#a19da1; stroke:none;" d="M620 164L621 165L620 164z"/>
<path style="fill:#c85f56; stroke:none;" d="M621 164L622 165L621 164z"/>
<path style="fill:#a19da1; stroke:none;" d="M622 164L622 168L623 168L622 164M516 165L516 168L517 168L516 165z"/>
<path style="fill:#c85f56; stroke:none;" d="M575 165L576 166L575 165z"/>
<path style="fill:#a19da1; stroke:none;" d="M618 165L619 166L618 165z"/>
<path style="fill:#c85f56; stroke:none;" d="M619 165L620 166L619 165z"/>
<path style="fill:#a19da1; stroke:none;" d="M576.333 166.667L576.667 167.333L576.333 166.667M616 166L617 167L616 166z"/>
<path style="fill:#c85f56; stroke:none;" d="M617 166L618 167L617 166M492 167L492 170L493 170L492 167z"/>
<path style="fill:#a19da1; stroke:none;" d="M614 167L615 168L614 167M577 168L578 169L577 168M612 168L613 169L612 168M517.333 169.667L517.667 170.333L517.333 169.667z"/>
<path style="fill:#c85f56; stroke:none;" d="M550 169L551 170L550 169M577 169L578 170L577 169z"/>
<path style="fill:#a19da1; stroke:none;" d="M609.667 169.333L610.333 169.667L609.667 169.333M550 170L551 171L550 170M578 170L579 171L578 170M607 170L608 171L607 170z"/>
<path style="fill:#c85f56; stroke:none;" d="M608 170L609 171L608 170M621 170L622 171L621 170z"/>
<path style="fill:#a19da1; stroke:none;" d="M551 171L552 172L551 171z"/>
<path style="fill:#c85f56; stroke:none;" d="M552 171L553 172L552 171z"/>
<path style="fill:#a19da1; stroke:none;" d="M604.667 171.333L605.333 171.667L604.667 171.333M621 171L621 174L622 174L621 171M648 171L648 177L649 177L648 171M518.333 172.667L518.667 173.333L518.333 172.667M553 172L553 173L556 173L553 172z"/>
<path style="fill:#c85f56; stroke:none;" d="M556.667 172.333L557.333 172.667L556.667 172.333z"/>
<path style="fill:#a19da1; stroke:none;" d="M558 172L558 173L563 174L558 172M579.333 172.667L579.667 173.333L579.333 172.667M602 172L603 173L602 172z"/>
<path style="fill:#c85f56; stroke:none;" d="M603 172L604 173L603 172z"/>
<path style="fill:#a19da1; stroke:none;" d="M599 173L600 174L599 173z"/>
<path style="fill:#c85f56; stroke:none;" d="M600 173L601 174L600 173M562 174L563 175L562 174z"/>
<path style="fill:#a19da1; stroke:none;" d="M595.667 174.333L596.333 174.667L595.667 174.333z"/>
<path style="fill:#c85f56; stroke:none;" d="M597 174L598 175L597 174M620 174L621 175L620 174z"/>
<path style="fill:#a19da1; stroke:none;" d="M519 175L519 183L520 183L519 175M556 175L556 176L559 176L556 175M580.667 175.333L581.333 175.667L580.667 175.333z"/>
<path style="fill:#c85f56; stroke:none;" d="M586 175L587 176L586 175z"/>
<path style="fill:#a19da1; stroke:none;" d="M587 175L587 176L593 176L587 175z"/>
<path style="fill:#c85f56; stroke:none;" d="M593 175L594 176L593 175z"/>
<path style="fill:#a19da1; stroke:none;" d="M620 175L621 176L620 175z"/>
<path style="fill:#c85f56; stroke:none;" d="M556 176L557 177L556 176M560 176L561 177L560 176z"/>
<path style="fill:#a19da1; stroke:none;" d="M561 176L562 177L561 176M619 176L620 177L619 176M556 177L556 181L557 181L556 177M618 178L619 179L618 178M649 178L644 203L641 203L641 204L651 204L649 178M633 179L633 180L637 181L633 179M617 180L618 181L617 180M630 180L630 181L633 181L630 180z"/>
<path style="fill:#c85f56; stroke:none;" d="M556 181L557 182L556 181z"/>
<path style="fill:#a19da1; stroke:none;" d="M623 182L623 183L629 182L623 182z"/>
<path style="fill:#c85f56; stroke:none;" d="M629 181L630 182L629 181z"/>
<path style="fill:#a19da1; stroke:none;" d="M637.333 181.667L637.667 182.333L637.333 181.667z"/>
<path style="fill:#c85f56; stroke:none;" d="M616 182L617 183L616 182M626 182L627 183L626 182z"/>
<path style="fill:#a19da1; stroke:none;" d="M555.333 183.667L555.667 184.333L555.333 183.667M616 183L615 191L616 191L620 184L616 183M620 183L620 184L623 184L620 183M638.333 183.667L638.667 184.333L638.333 183.667z"/>
<path style="fill:#c85f56; stroke:none;" d="M555 185L556 186L555 185M518 186L519 187L518 186M615 186L616 187L615 186z"/>
<path style="fill:#a19da1; stroke:none;" d="M639.333 186.667L639.667 187.333L639.333 186.667M518 187L518 190L519 190L518 187M554 187L554 192L555 192L554 187z"/>
<path style="fill:#c85f56; stroke:none;" d="M617 188L618 189L617 188M639 188L640 189L639 188M616.333 189.667L616.667 190.333L616.333 189.667M491 190L491 194L492 194L491 190z"/>
<path style="fill:#a19da1; stroke:none;" d="M640 190L640 195L641 195L640 190z"/>
<path style="fill:#c85f56; stroke:none;" d="M614 191C609.4 197.729 604.021 203.722 600.19 211C594.74 221.354 595.469 243.322 613 234.543C624.32 228.875 632.942 210.115 634 198L615 194L616 191L614 191M517 192L518 193L517 192z"/>
<path style="fill:#a19da1; stroke:none;" d="M517 193L517 196L518 196L517 193M555.333 193.667L555.667 194.333L555.333 193.667M556 196L557 197L556 196M641 196L641 201L642 201L641 196z"/>
<path style="fill:#c85f56; stroke:none;" d="M516 197L517 198L516 197z"/>
<path style="fill:#a19da1; stroke:none;" d="M516 198L516 201L517 201L516 198M557 198L558 199L557 198z"/>
<path style="fill:#c85f56; stroke:none;" d="M558 199L558 220L559 220L558 199z"/>
<path style="fill:#a19da1; stroke:none;" d="M515 202L515 207L516 207L515 202z"/>
<path style="fill:#c85f56; stroke:none;" d="M641 202L642 203L641 202z"/>
<path style="fill:#a19da1; stroke:none;" d="M286 204L286 502L287 502L287 292L287 231L286 204M887 204L887 323L888 323L888 240L887 204M516.333 207.667L516.667 208.333L516.333 207.667M517 209L518 210L517 209z"/>
<path style="fill:#c85f56; stroke:none;" d="M517 210L518 211L517 210z"/>
<path style="fill:#a19da1; stroke:none;" d="M518 211L519 212L518 211M519 212L520 213L519 212z"/>
<path style="fill:#c85f56; stroke:none;" d="M519 213L520 214L519 213z"/>
<path style="fill:#a19da1; stroke:none;" d="M520 214L521 215L520 214M521 215L522 216L521 215M522 216L523 217L522 216M523 217L524 218L523 217M573 217L573 330L574 330L574 218L598 218L573 217M626 218L626 219L659 218C651.317 214.776 633.949 215.65 626 218M524.333 218.667L524.667 219.333L524.333 218.667z"/>
<path style="fill:#f0f2f5; stroke:none;" d="M574 218L574 330L624 330L626 346C646.433 345.578 667.838 339.445 688 336.08C692.579 335.316 706.096 335.132 708.933 331.258C712.439 326.471 706.293 307.72 705.197 302C700.304 276.475 693.114 248.959 692 223L659 229L659 218C650.437 218 636.089 215.21 628.21 218.603C622.693 220.979 620.074 229.707 614.996 233.362C602.524 242.339 593.615 230.074 597 218L574 218z"/>
<path style="fill:#a19da1; stroke:none;" d="M596 219L596 222L597 222L596 219M525.333 220.667L525.667 221.333L525.333 220.667M625 220L626 221L625 220M526.333 222.667L526.667 223.333L526.333 222.667M624 222L625 223L624 222M595 223L595 228L596 228L595 223M623 223L624 224L623 223M686 223L686 224L689 224L686 223z"/>
<path style="fill:#c85f56; stroke:none;" d="M526 224L527 225L526 224M680 224L681 225L680 224z"/>
<path style="fill:#a19da1; stroke:none;" d="M681.667 224.333L682.333 224.667L681.667 224.333M527.333 225.667L527.667 226.333L527.333 225.667M622 225L623 226L622 225z"/>
<path style="fill:#c85f56; stroke:none;" d="M674 225L675 226L674 225z"/>
<path style="fill:#a19da1; stroke:none;" d="M675 225L675 226L678 226L675 225M621 226L622 227L621 226z"/>
<path style="fill:#c85f56; stroke:none;" d="M668 226L669 227L668 226z"/>
<path style="fill:#a19da1; stroke:none;" d="M669 226L669 227L672 227L669 226M692 226L692 229L693 229L692 226z"/>
<path style="fill:#c85f56; stroke:none;" d="M527 227L528 228L527 227z"/>
<path style="fill:#a19da1; stroke:none;" d="M663 227L663 228L666 228L663 227M620 228L621 229L620 228M659 228L660 229L659 228M528 229L528 232L529 232L528 229M619 229L620 230L619 229M596 230L597 231L596 230M618 230L619 231L618 230M617 231L618 232L617 231M597 232L598 233L597 232M616 232L617 233L616 232M693 232L693 235L694 235L693 232M598 233L599 234L598 233M615 233L616 234L615 233M529 234L529 239L530 239L529 234M600 234L601 235L600 234M613 234L614 235L613 234M601.667 235.333L602.333 235.667L601.667 235.333M611 235L612 236L611 235M687 235L688 236L687 235M604 236L604 237L610 237L604 236M681.667 236.333L682.333 236.667L681.667 236.333z"/>
<path style="fill:#c85f56; stroke:none;" d="M619 247L620 253L689 241L689 236L619 247z"/>
<path style="fill:#a19da1; stroke:none;" d="M675.667 237.333L676.333 237.667L675.667 237.333z"/>
<path style="fill:#c85f56; stroke:none;" d="M694 237L695 238L694 237z"/>
<path style="fill:#a19da1; stroke:none;" d="M670 238L671 239L670 238M694 238L694 241L695 241L694 238z"/>
<path style="fill:#c85f56; stroke:none;" d="M529.333 239.667L529.667 240.333L529.333 239.667z"/>
<path style="fill:#a19da1; stroke:none;" d="M664 239L665 240L664 239M658 240L659 241L658 240M689 240L690 241L689 240M652 241L653 242L652 241M686.667 241.333L687.333 241.667L686.667 241.333M646 242L647 243L646 242M681 242L682 243L681 242M640.667 243.333L641.333 243.667L640.667 243.333M675 243L676 244L675 243z"/>
<path style="fill:#c85f56; stroke:none;" d="M695 243L696 244L695 243z"/>
<path style="fill:#a19da1; stroke:none;" d="M634.667 244.333L635.333 244.667L634.667 244.333M669 244L670 245L669 244M695 244L695 247L696 247L695 244M628.667 245.333L629.333 245.667L628.667 245.333M663 245L664 246L663 245M623 246L624 247L623 246M657.667 246.333L658.333 246.667L657.667 246.333M687 246L688 247L687 246z"/>
<path style="fill:#c85f56; stroke:none;" d="M622 263L691 252L691 246C673.35 248.279 655.481 251.617 638 255C631.832 256.194 622.618 255.25 622 263M529 247L530 248L529 247z"/>
<path style="fill:#a19da1; stroke:none;" d="M651.667 247.333L652.333 247.667L651.667 247.333M681.667 247.333L682.333 247.667L681.667 247.333M529 248L529 254L530 254L529 248M645.667 248.333L646.333 248.667L645.667 248.333M675.667 248.333L676.333 248.667L675.667 248.333M619 249L620 250L619 249M640 249L641 250L640 249M669.667 249.333L670.333 249.667L669.667 249.333M691 249L691 252L692 252L691 249z"/>
<path style="fill:#c85f56; stroke:none;" d="M696 249L697 250L696 249z"/>
<path style="fill:#a19da1; stroke:none;" d="M634 250L635 251L634 250M664 250L665 251L664 250M696.333 250.667L696.667 251.333L696.333 250.667M628 251L629 252L628 251M658 251L659 252L658 251M622 252L623 253L622 252M652 252L653 253L652 252M686.667 252.333L687.333 252.667L686.667 252.333M646 253L647 254L646 253M681 253L682 254L681 253z"/>
<path style="fill:#c85f56; stroke:none;" d="M529 254L530 255L529 254z"/>
<path style="fill:#a19da1; stroke:none;" d="M640 254L641 255L640 254M675 254L676 255L675 254M530.333 255.667L530.667 256.333L530.333 255.667M634.667 255.333L635.333 255.667L634.667 255.333M669 255L670 256L669 255M697 255L697 258L698 258L697 255M628.667 256.333L629.333 256.667L628.667 256.333M663 256L664 257L663 256z"/>
<path style="fill:#c85f56; stroke:none;" d="M812 256L813 257L812 256z"/>
<path style="fill:#a19da1; stroke:none;" d="M763 379C772.273 375.099 780.759 367.489 789 361.72L834 330.28C838.644 327.03 855.408 318.866 855.883 312.907C856.135 309.756 852.676 306.396 851.026 304C845.992 296.691 840.94 289.371 836.001 282C831.787 275.71 824.262 259.11 816.907 256.647C810.669 254.559 801.717 263.825 797 267C779.182 278.995 761.607 291.417 744 303.72C739.144 307.113 725.54 313.267 725.453 320.039C725.38 325.727 731.999 332.498 735 337C744.278 350.917 754.862 364.383 763 379M531 257L532 258L531 257M623 257L624 258L623 257M657 257L658 258L657 257M532 258L533 259L532 258M621 258L622 259L621 258M651.667 258.333L652.333 258.667L651.667 258.333M533 259L534 260L533 259M645.667 259.333L646.333 259.667L645.667 259.333M640 260L641 261L640 260M534 261L534 269L535 269L534 261M634 261L635 262L634 261M698 261L698 264L699 264L698 261M628 262L629 263L628 262M558 263L558 268L559 268L558 263z"/>
<path style="fill:#c85f56; stroke:none;" d="M802 263L803 264L802 263M799 265L800 266L799 265M824 265L825 266L824 265z"/>
<path style="fill:#a19da1; stroke:none;" d="M692 266L693 267L692 266z"/>
<path style="fill:#c85f56; stroke:none;" d="M625 278L630 304L699 292L694 266L625 278M699 266L700 267L699 266z"/>
<path style="fill:#a19da1; stroke:none;" d="M686 267L687 268L686 267M694 267L695 268L694 267M699 267L699 270L700 270L699 267M680 268L681 269L680 268z"/>
<path style="fill:#c85f56; stroke:none;" d="M826 268L827 269L826 268M534.333 269.667L534.667 270.333L534.333 269.667z"/>
<path style="fill:#a19da1; stroke:none;" d="M674.667 269.333L675.333 269.667L674.667 269.333z"/>
<path style="fill:#c85f56; stroke:none;" d="M559 270L560 271L559 270z"/>
<path style="fill:#a19da1; stroke:none;" d="M668.667 270.333L669.333 270.667L668.667 270.333M559 271L559 275L560 275L559 271M662.667 271.333L663.333 271.667L662.667 271.333z"/>
<path style="fill:#c85f56; stroke:none;" d="M828 271L829 272L828 271z"/>
<path style="fill:#a19da1; stroke:none;" d="M657 272L658 273L657 272M695.333 272.667L695.667 273.333L695.333 272.667z"/>
<path style="fill:#c85f56; stroke:none;" d="M700 272L701 273L700 272M789 272L790 273L789 272z"/>
<path style="fill:#a19da1; stroke:none;" d="M651 273L652 274L651 273M700 273L700 276L701 276L700 273M535 274L535 281L536 281L535 274M645 274L646 275L645 274z"/>
<path style="fill:#c85f56; stroke:none;" d="M786 274L787 275L786 274z"/>
<path style="fill:#a19da1; stroke:none;" d="M639 275L640 276L639 275M633.667 276.333L634.333 276.667L633.667 276.333z"/>
<path style="fill:#c85f56; stroke:none;" d="M560 277L561 278L560 277z"/>
<path style="fill:#a19da1; stroke:none;" d="M627.667 277.333L628.333 277.667L627.667 277.333M560 278L560 282L561 282L560 278M696.333 278.667L696.667 279.333L696.333 278.667M701 278L701 281L702 281L701 278z"/>
<path style="fill:#c85f56; stroke:none;" d="M535 281L536 282L535 281z"/>
<path style="fill:#a19da1; stroke:none;" d="M625 281L626 282L625 281z"/>
<path style="fill:#c85f56; stroke:none;" d="M776 281L777 282L776 281M561 284L562 285L561 284z"/>
<path style="fill:#a19da1; stroke:none;" d="M697 284L698 285L697 284M702 284L702 287L703 287L702 284z"/>
<path style="fill:#c85f56; stroke:none;" d="M837 284L838 285L837 284z"/>
<path style="fill:#a19da1; stroke:none;" d="M536 285L536 291L537 291L536 285M561 285L561 290L562 290L561 285z"/>
<path style="fill:#c85f56; stroke:none;" d="M826 286L828 288L826 286z"/>
<path style="fill:#a19da1; stroke:none;" d="M626 287L627 288L626 287z"/>
<path style="fill:#1f1f23; stroke:none;" d="M824 294C833.988 290.315 819.919 284.065 824 294z"/>
<path style="fill:#c85f56; stroke:none;" d="M839 287L840 288L839 287M766 288L767 289L766 288z"/>
<path style="fill:#a19da1; stroke:none;" d="M553 289L553 290L556 290L553 289M548 290L548 291L551 291L548 290z"/>
<path style="fill:#c85f56; stroke:none;" d="M535 322L536 322C544.097 314.779 546.648 330.777 548 336L555 332L561 351L563 351L567 343L567 342L563 339L565 327L558 290C537.262 290.172 535.012 303.647 535 322z"/>
<path style="fill:#a19da1; stroke:none;" d="M558.667 290.333L559.333 290.667L558.667 290.333M698 290L699 291L698 290M703 290L703 293L704 293L703 290z"/>
<path style="fill:#c85f56; stroke:none;" d="M763 290L764 291L763 290M829 290L830 291L829 290M536 291L537 292L536 291z"/>
<path style="fill:#a19da1; stroke:none;" d="M544.667 291.333L545.333 291.667L544.667 291.333M560 291L561 292L560 291M541.667 292.333L542.333 292.667L541.667 292.333z"/>
<path style="fill:#c85f56; stroke:none;" d="M561.667 292.333L562.333 292.667L561.667 292.333z"/>
<path style="fill:#a19da1; stroke:none;" d="M695 292L696 293L695 292z"/>
<path style="fill:#1f1f23; stroke:none;" d="M816 295L816 296L818 299L824 297L822 292L816 295z"/>
<path style="fill:#a19da1; stroke:none;" d="M537 293L538 294L537 293M539 293L540 294L539 293M627 293L628 294L627 293M689.667 293.333L690.333 293.667L689.667 293.333z"/>
<path style="fill:#c85f56; stroke:none;" d="M822 293L823 294L822 293z"/>
<path style="fill:#a19da1; stroke:none;" d="M683.667 294.333L684.333 294.667L683.667 294.333z"/>
<path style="fill:#c85f56; stroke:none;" d="M816 294L817 295L816 294z"/>
<path style="fill:#a19da1; stroke:none;" d="M677.667 295.333L678.333 295.667L677.667 295.333z"/>
<path style="fill:#c85f56; stroke:none;" d="M704 295L705 296L704 295M830 295L831 296L830 295z"/>
<path style="fill:#1f1f23; stroke:none;" d="M832 311L828 306C831.906 302.545 835.183 300.363 833 295C829.435 296.202 823.682 298.901 822.877 303.09C821.767 308.871 827.157 312.988 832 311z"/>
<path style="fill:#a19da1; stroke:none;" d="M672 296L673 297L672 296M704 296L704 299L705 299L704 296M666 297L667 298L666 297z"/>
<path style="fill:#c85f56; stroke:none;" d="M753 297L754 298L753 297z"/>
<path style="fill:#1f1f23; stroke:none;" d="M812 297L808 300L810 305L816 302L816 301L812 297z"/>
<path style="fill:#c85f56; stroke:none;" d="M817 297L818 298L817 297z"/>
<path style="fill:#a19da1; stroke:none;" d="M628.333 298.667L628.667 299.333L628.333 298.667M660 298L661 299L660 298z"/>
<path style="fill:#c85f56; stroke:none;" d="M810 298L811 299L810 298z"/>
<path style="fill:#a19da1; stroke:none;" d="M654 299L655 300L654 299z"/>
<path style="fill:#c85f56; stroke:none;" d="M750 299L751 300L750 299M814 299L815 300L814 299M819 299L820 300L819 299M825 299L826 300L825 299z"/>
<path style="fill:#a19da1; stroke:none;" d="M648 300L649 301L648 300z"/>
<path style="fill:#c85f56; stroke:none;" d="M848 300L849 301L848 300z"/>
<path style="fill:#a19da1; stroke:none;" d="M642.667 301.333L643.333 301.667L642.667 301.333z"/>
<path style="fill:#c85f56; stroke:none;" d="M705 301L706 302L705 301z"/>
<path style="fill:#a19da1; stroke:none;" d="M636.667 302.333L637.333 302.667L636.667 302.333M705.333 302.667L705.667 303.333L705.333 302.667M629 303L630 304L629 303M631 303L632 304L631 303z"/>
<path style="fill:#c85f56; stroke:none;" d="M805 303L806 304L805 303z"/>
<path style="fill:#1f1f23; stroke:none;" d="M778 321L780 327L810 308L808 303L778 321z"/>
<path style="fill:#c85f56; stroke:none;" d="M809 303L810 304L809 303M816 303L817 304L816 303z"/>
<path style="fill:#1f1f23; stroke:none;" d="M815 310L821 308L819 303C815.166 304.413 814.33 305.987 815 310z"/>
<path style="fill:#c85f56; stroke:none;" d="M830 303L831 304L830 303z"/>
<path style="fill:#1f1f23; stroke:none;" d="M833 305L838 316L843 314C841.603 308.389 839.472 302.719 833 305z"/>
<path style="fill:#c85f56; stroke:none;" d="M850 303L851 304L850 303z"/>
<path style="fill:#a19da1; stroke:none;" d="M670.667 304.333L671.333 304.667L670.667 304.333z"/>
<path style="fill:#c85f56; stroke:none;" d="M655 307L660 333L679 330L675 304L655 307M834 304L835 305L834 304z"/>
<path style="fill:#a19da1; stroke:none;" d="M664.667 305.333L665.333 305.667L664.667 305.333z"/>
<path style="fill:#c85f56; stroke:none;" d="M801 305L802 306L801 305M820 305L821 306L820 305M828 305L829 306L828 305z"/>
<path style="fill:#a19da1; stroke:none;" d="M659 306L660 307L659 306M675.333 306.667L675.667 307.333L675.333 306.667z"/>
<path style="fill:#c85f56; stroke:none;" d="M740 306L741 307L740 306M813 306L814 307L813 306M823 306L824 307L823 306M852 306L853 307L852 306z"/>
<path style="fill:#a19da1; stroke:none;" d="M706 307L706 310L707 310L706 307z"/>
<path style="fill:#c85f56; stroke:none;" d="M840.333 307.667L840.667 308.333L840.333 307.667M737 308L738 309L737 308z"/>
<path style="fill:#1f1f23; stroke:none;" d="M810 316L816 313L816 312L813 308C809.201 310.156 808.552 311.884 810 316z"/>
<path style="fill:#c85f56; stroke:none;" d="M831 308L832 309L831 308z"/>
<path style="fill:#a19da1; stroke:none;" d="M641.667 309.333L642.333 309.667L641.667 309.333z"/>
<path style="fill:#c85f56; stroke:none;" d="M628 312L632 337L652 334L648 309L628 312z"/>
<path style="fill:#a19da1; stroke:none;" d="M655 309L656 310L655 309z"/>
<path style="fill:#c85f56; stroke:none;" d="M807 309L808 310L807 309M818 309L819 310L818 309z"/>
<path style="fill:#a19da1; stroke:none;" d="M635.667 310.333L636.333 310.667L635.667 310.333z"/>
<path style="fill:#c85f56; stroke:none;" d="M805 310L806 311L805 310M814 310L815 311L814 310M816 310L817 311L816 310M835.333 310.667L835.667 311.333L835.333 310.667z"/>
<path style="fill:#a19da1; stroke:none;" d="M629.667 311.333L630.333 311.667L629.667 311.333z"/>
<path style="fill:#c85f56; stroke:none;" d="M822 311L823 312L822 311z"/>
<path style="fill:#1f1f23; stroke:none;" d="M822 319L823 319L827 316C823.602 310.1 818.515 313.094 822 319z"/>
<path style="fill:#a19da1; stroke:none;" d="M676.333 312.667L676.667 313.333L676.333 312.667z"/>
<path style="fill:#c85f56; stroke:none;" d="M801 312L802 313L801 312M826 312L827 313L826 312z"/>
<path style="fill:#a19da1; stroke:none;" d="M648.333 313.667L648.667 314.333L648.333 313.667M707 313L707 316L708 316L707 313z"/>
<path style="fill:#c85f56; stroke:none;" d="M819 313L820 314L819 313M836 313L837 314L836 313z"/>
<path style="fill:#a19da1; stroke:none;" d="M656.333 314.667L656.667 315.333L656.333 314.667z"/>
<path style="fill:#c85f56; stroke:none;" d="M788 314L789 315L788 314z"/>
<path style="fill:#1f1f23; stroke:none;" d="M805 314C795.012 317.685 809.081 323.935 805 314z"/>
<path style="fill:#c85f56; stroke:none;" d="M809 314L810 315L809 314z"/>
<path style="fill:#1f1f23; stroke:none;" d="M838 319C831.33 307.254 819.807 327.494 832.975 321.42L838 319z"/>
<path style="fill:#c85f56; stroke:none;" d="M835 314L836 315L835 314M727 315L728 316L727 315M819 315L820 316L819 315M831 315L832 316L831 315z"/>
<path style="fill:#a19da1; stroke:none;" d="M628 316L629 317L628 316z"/>
<path style="fill:#c85f56; stroke:none;" d="M785 316L786 317L785 316M806 316L807 317L806 316M725 317L726 318L725 317M794 317L795 318L794 317z"/>
<path style="fill:#1f1f23; stroke:none;" d="M805 322C811.755 333.726 823.28 312.709 809.6 319.369C807.99 320.153 806.518 321.054 805 322z"/>
<path style="fill:#c85f56; stroke:none;" d="M824 317L825 318L824 317M837 317L838 318L837 317z"/>
<path style="fill:#a19da1; stroke:none;" d="M677 318L678 319L677 318z"/>
<path style="fill:#c85f56; stroke:none;" d="M708 318L709 319L708 318M782 318L783 319L782 318M821 318L822 319L821 318z"/>
<path style="fill:#a19da1; stroke:none;" d="M538 319L538 320L544 322L538 319M649.333 319.667L649.667 320.333L649.333 319.667M708 319L708 322L709 322L708 319z"/>
<path style="fill:#c85f56; stroke:none;" d="M791 319L792 320L791 319z"/>
<path style="fill:#1f1f23; stroke:none;" d="M798 319L794 322L797 328L793 329L791 325L783 330L787 336C778.849 337.701 782.587 343.202 790 340L791 346L796 344L793 338L794 337L796 340L802 338L799 332L805 330L798 319z"/>
<path style="fill:#c85f56; stroke:none;" d="M810 319L811 320L810 319M824 319L825 320L824 319M836 319L837 320L836 319M769 378C774.642 382.22 791.955 388.856 799 387.397C807.931 385.546 817.54 375.698 825 370.67C845.036 357.164 864.969 343.513 885 330L885 328C877.952 324.876 864.742 318.627 857 319.603C848.273 320.704 838.153 331.207 831 335.999C810.261 349.893 789.694 364.039 769 378z"/>
<path style="fill:#a19da1; stroke:none;" d="M536 320L537 321L536 320z"/>
<path style="fill:#f0f2f5; stroke:none;" d="M548 371L565 368L566 343L565 343L563 352C557.404 347.578 556.382 340.695 555 334L547 337C546.806 332.54 546.325 325.855 543.272 322.319C540.61 319.234 536.704 320.318 535.576 324.059C531.799 336.595 542.756 359.787 548 371z"/>
<path style="fill:#a19da1; stroke:none;" d="M657 320L658 321L657 320z"/>
<path style="fill:#c85f56; stroke:none;" d="M796 320L797 321L796 320M801 320L802 321L801 320M807 320L808 321L807 320M847 320L848 321L847 320z"/>
<path style="fill:#a19da1; stroke:none;" d="M629.333 321.667L629.667 322.333L629.333 321.667M535.333 322.667L535.667 323.333L535.333 322.667z"/>
<path style="fill:#c85f56; stroke:none;" d="M725 322L726 323L725 322z"/>
<path style="fill:#1f1f23; stroke:none;" d="M819 330L820 330L824 327L822 322C817.366 323.644 816.498 325.759 819 330z"/>
<path style="fill:#c85f56; stroke:none;" d="M830 322L831 323L830 322z"/>
<path style="fill:#a19da1; stroke:none;" d="M544 323L545 324L544 323z"/>
<path style="fill:#c85f56; stroke:none;" d="M794 323L795 324L794 323M805 323L806 324L805 323M815 323L816 324L815 323z"/>
<path style="fill:#a19da1; stroke:none;" d="M888.667 323.333L889.333 323.667L888.667 323.333M678 324L679 325L678 324z"/>
<path style="fill:#c85f56; stroke:none;" d="M709 324L710 325L709 324M784 324L785 325L784 324M812 324L813 325L812 324z"/>
<path style="fill:#a19da1; stroke:none;" d="M890.333 324.667L890.667 325.333L890.333 324.667z"/>
<path style="fill:#c85f56; stroke:none;" d="M534 325L534 328L535 328L534 325z"/>
<path style="fill:#a19da1; stroke:none;" d="M545 325L545 328L546 328L545 325M650 325L651 326L650 325M709 325L709 328L710 328L709 325z"/>
<path style="fill:#c85f56; stroke:none;" d="M727 325L728 326L727 325M772 325L773 326L772 325z"/>
<path style="fill:#1f1f23; stroke:none;" d="M764 330L766 335L777 330L775 325L764 330z"/>
<path style="fill:#c85f56; stroke:none;" d="M779 325L780 326L779 325M802 325L803 326L802 325z"/>
<path style="fill:#a19da1; stroke:none;" d="M658 326L659 327L658 326z"/>
<path style="fill:#c85f56; stroke:none;" d="M775 326L776 327L775 326M781 326L782 327L781 326M787 326L788 327L787 326M796 326L797 327L796 326M807 326L808 327L807 326z"/>
<path style="fill:#a19da1; stroke:none;" d="M630.333 327.667L630.667 328.333L630.333 327.667z"/>
<path style="fill:#c85f56; stroke:none;" d="M768.667 327.333L769.333 327.667L768.667 327.333M792 327L793 328L792 327M812 327L813 328L812 327M837 327L838 328L837 327M729 328L730 329L729 328M804 328L805 329L804 328M810 328L811 329L810 328z"/>
<path style="fill:#1f1f23; stroke:none;" d="M805 338L816 332L816 331L814 328C808.371 329.074 802.363 331.574 805 338z"/>
<path style="fill:#c85f56; stroke:none;" d="M821 328L822 329L821 328z"/>
<path style="fill:#a19da1; stroke:none;" d="M887 328L887 502L676 502L627 502C620.642 502 611.646 499.712 611 508L612 508L612 503L888 503L888 380L888 345L887 328M546 329L546 332L547 332L546 329z"/>
<path style="fill:#c85f56; stroke:none;" d="M784 329L785 330L784 329z"/>
<path style="fill:#a19da1; stroke:none;" d="M535 330L535 334L536 334L535 330M623 330L623 333L624 333L623 330M673 330L674 331L673 330z"/>
<path style="fill:#c85f56; stroke:none;" d="M710 330L711 331L710 330M775 330L776 331L775 330z"/>
<path style="fill:#1f1f23; stroke:none;" d="M779 330L775 333L777 338L782 336L779 330z"/>
<path style="fill:#c85f56; stroke:none;" d="M803 330L804 331L803 330M806.667 330.333L807.333 330.667L806.667 330.333z"/>
<path style="fill:#a19da1; stroke:none;" d="M651 331L652 332L651 331M667 331L668 332L667 331M710 331L708 332L708 333L710 331z"/>
<path style="fill:#c85f56; stroke:none;" d="M731 331L732 332L731 331M777 331L778 332L777 331M780 331L781 332L780 331M783 331L784 332L783 331z"/>
<path style="fill:#a19da1; stroke:none;" d="M791 331L793 337L794 337L791 331z"/>
<path style="fill:#1f1f23; stroke:none;" d="M554 332L555 333L554 332z"/>
<path style="fill:#a19da1; stroke:none;" d="M558 332L562 339L563 339L558 332M659 332L660 333L659 332M661.667 332.333L662.333 332.667L661.667 332.333z"/>
<path style="fill:#c85f56; stroke:none;" d="M710 332L711 333L710 332M792 332L793 333L792 332M803 332L804 333L803 332M815 332L816 333L815 332z"/>
<path style="fill:#a19da1; stroke:none;" d="M553 333L553 334L555 337L556 337L556 333L553 333M631 333L632 334L631 333M702 333L702 334L705 334L702 333z"/>
<path style="fill:#c85f56; stroke:none;" d="M705 333L706 334L705 333z"/>
<path style="fill:#1f1f23; stroke:none;" d="M750 339L750 340L752 343C757.767 341.764 763.33 339.628 761 333L750 339z"/>
<path style="fill:#c85f56; stroke:none;" d="M765 333L766 334L765 333M797 333L798 334L797 333M802 333L803 334L802 333M535 334L536 335L535 334z"/>
<path style="fill:#a19da1; stroke:none;" d="M547 334L549 337L547 334M551.667 334.333L552.333 334.667L551.667 334.333M650 334L651 335L650 334M696 334L696 335L699 335L696 334z"/>
<path style="fill:#c85f56; stroke:none;" d="M699 334L700 335L699 334M761 334L762 335L761 334M775 334L776 335L775 334M782 334L783 335L782 334M785 334L786 335L785 334M812 334L813 335L812 334M827 334L828 335L827 334z"/>
<path style="fill:#a19da1; stroke:none;" d="M549.667 335.333L550.333 335.667L549.667 335.333M644 335L645 336L644 335M691.667 335.333L692.333 335.667L691.667 335.333z"/>
<path style="fill:#c85f56; stroke:none;" d="M693 335L694 336L693 335M786 335L787 336L786 335M792 335L793 336L792 335M794 335L795 336L794 335M803 335L804 336L803 335M809 335L810 336L809 335z"/>
<path style="fill:#a19da1; stroke:none;" d="M536.333 336.667L536.667 337.333L536.333 336.667M624.333 336.667L624.667 337.333L624.333 336.667M638 336L639 337L638 336M685 336L685 337L688 337L685 336z"/>
<path style="fill:#c85f56; stroke:none;" d="M772 336L773 337L772 336z"/>
<path style="fill:#1f1f23; stroke:none;" d="M775 349L776 349L780 346L775 336C768.121 338.539 771.896 344.422 775 349z"/>
<path style="fill:#c85f56; stroke:none;" d="M783 336L784 337L783 336M801 336L802 337L801 336z"/>
<path style="fill:#a19da1; stroke:none;" d="M632 337L633 338L632 337M679 337L679 338L682 338L679 337z"/>
<path style="fill:#c85f56; stroke:none;" d="M775 337L776 338L775 337M536.333 338.667L536.667 339.333L536.333 338.667z"/>
<path style="fill:#a19da1; stroke:none;" d="M556 338L556 341L557 341L556 338z"/>
<path style="fill:#c85f56; stroke:none;" d="M624 338L625 339L624 338z"/>
<path style="fill:#a19da1; stroke:none;" d="M673 338L673 339L676 339L673 338z"/>
<path style="fill:#c85f56; stroke:none;" d="M750 338L751 339L750 338M793 338L794 339L793 338M795 338L796 339L795 338z"/>
<path style="fill:#a19da1; stroke:none;" d="M563 339L565 342L563 339M667 339L667 340L670 340L667 339z"/>
<path style="fill:#c85f56; stroke:none;" d="M670 339L671 340L670 339z"/>
<path style="fill:#1f1f23; stroke:none;" d="M753 346L756 352L769 344C764.651 336.277 758.43 342.337 753 346z"/>
<path style="fill:#c85f56; stroke:none;" d="M769 339L770 340L769 339z"/>
<path style="fill:#a19da1; stroke:none;" d="M537 340L537 343L538 343L537 340M661 340L661 341L664 341L661 340z"/>
<path style="fill:#c85f56; stroke:none;" d="M664 340L665 341L664 340M788.667 340.333L789.333 340.667L788.667 340.333M797 340L798 341L797 340z"/>
<path style="fill:#a19da1; stroke:none;" d="M625 341L625 344L626 344L625 341M655 341L655 342L658 342L655 341z"/>
<path style="fill:#c85f56; stroke:none;" d="M658 341L659 342L658 341M751 341L752 342L751 341M786 341L787 342L786 341M817 341L818 342L817 341z"/>
<path style="fill:#a19da1; stroke:none;" d="M557 342L557 345L558 345L557 342M565 342L566 343L565 342M650 342L650 343L653 343L650 342z"/>
<path style="fill:#c85f56; stroke:none;" d="M768 342L769 343L768 342M771 342L772 343L771 342M774 342L775 343L774 342M782 342L783 343L782 342z"/>
<path style="fill:#a19da1; stroke:none;" d="M566 343L567 344L566 343M644 343L644 344L647 344L644 343z"/>
<path style="fill:#c85f56; stroke:none;" d="M772 343L773 344L772 343M778 343L779 344L778 343z"/>
<path style="fill:#a19da1; stroke:none;" d="M538.333 344.667L538.667 345.333L538.333 344.667M567 344L567 349L568 349L567 344z"/>
<path style="fill:#c85f56; stroke:none;" d="M625 344L626 345L625 344z"/>
<path style="fill:#a19da1; stroke:none;" d="M638 344L638 345L641 345L638 344z"/>
<path style="fill:#c85f56; stroke:none;" d="M767 344L768 345L767 344z"/>
<path style="fill:#1f1f23; stroke:none;" d="M778 349L780 354L791 349C787.491 342.909 783.064 346.519 778 349z"/>
<path style="fill:#c85f56; stroke:none;" d="M794 344L795 345L794 344z"/>
<path style="fill:#a19da1; stroke:none;" d="M632 345L632 346L635 346L632 345z"/>
<path style="fill:#c85f56; stroke:none;" d="M538 346L539 347L538 346z"/>
<path style="fill:#a19da1; stroke:none;" d="M558.333 346.667L558.667 347.333L558.333 346.667M564 346L564 349L565 349L564 346M626 346L626 347L629 347L626 346z"/>
<path style="fill:#c85f56; stroke:none;" d="M629 346L630 347L629 346M764 346L765 347L764 346z"/>
<path style="fill:#a19da1; stroke:none;" d="M539.333 347.667L539.667 348.333L539.333 347.667z"/>
<path style="fill:#1f1f23; stroke:none;" d="M767 349L769 354L774 352L772 347L767 349z"/>
<path style="fill:#c85f56; stroke:none;" d="M777 347L778 348L777 347z"/>
<path style="fill:#a19da1; stroke:none;" d="M559.333 348.667L559.667 349.333L559.333 348.667z"/>
<path style="fill:#c85f56; stroke:none;" d="M761 348L762 349L761 348M774 348L775 349L774 348M779 348L780 349L779 348M807 348L808 349L807 348M539 349L540 350L539 349M567.333 349.667L567.667 350.333L567.333 349.667z"/>
<path style="fill:#a19da1; stroke:none;" d="M540.333 350.667L540.667 351.333L540.333 350.667M560 350L561 351L560 350M563 350L564 351L563 350z"/>
<path style="fill:#c85f56; stroke:none;" d="M758 350L759 351L758 350z"/>
<path style="fill:#1f1f23; stroke:none;" d="M761.292 351.175C758.841 352.47 760.011 356.512 762.867 355.504C766.033 354.387 764.297 349.588 761.292 351.175z"/>
<path style="fill:#a19da1; stroke:none;" d="M561.667 351.333L562.333 351.667L561.667 351.333z"/>
<path style="fill:#c85f56; stroke:none;" d="M767 351L768 352L767 351M778 351L779 352L778 351M785.667 351.333L786.333 351.667L785.667 351.333M540 352L541 353L540 352z"/>
<path style="fill:#a19da1; stroke:none;" d="M566 352L566 357L567 357L566 352z"/>
<path style="fill:#c85f56; stroke:none;" d="M758 352L759 353L758 352z"/>
<path style="fill:#1f1f23; stroke:none;" d="M776 352L772 355L775 360L776 360L780 357L776 352z"/>
<path style="fill:#a19da1; stroke:none;" d="M541.333 353.667L541.667 354.333L541.333 353.667z"/>
<path style="fill:#c85f56; stroke:none;" d="M774 353L775 354L774 353M765 354L766 355L765 354M778 354L779 355L778 354M541 355L542 356L541 355M797 355L798 356L797 355z"/>
<path style="fill:#a19da1; stroke:none;" d="M542.333 356.667L542.667 357.333L542.333 356.667z"/>
<path style="fill:#c85f56; stroke:none;" d="M748 356L749 357L748 356M762 356L763 357L762 356M566.333 357.667L566.667 358.333L566.333 357.667M542 358L543 359L542 358z"/>
<path style="fill:#1f1f23; stroke:none;" d="M764 360L766 365C772.094 362.751 770.071 357.86 764 360z"/>
<path style="fill:#c85f56; stroke:none;" d="M777 358L778 359L777 358z"/>
<path style="fill:#a19da1; stroke:none;" d="M543.333 359.667L543.667 360.333L543.333 359.667z"/>
<path style="fill:#c85f56; stroke:none;" d="M750 359L751 360L750 359M765 359L766 360L765 359z"/>
<path style="fill:#a19da1; stroke:none;" d="M565 360L565 365L566 365L565 360z"/>
<path style="fill:#c85f56; stroke:none;" d="M543 361L544 362L543 361z"/>
<path style="fill:#a19da1; stroke:none;" d="M544.333 362.667L544.667 363.333L544.333 362.667z"/>
<path style="fill:#c85f56; stroke:none;" d="M752 362L753 363L752 362M787 362L788 363L787 362z"/>
<path style="fill:#a19da1; stroke:none;" d="M545 365L546 366L545 365z"/>
<path style="fill:#c85f56; stroke:none;" d="M565.333 365.667L565.667 366.333L565.333 365.667M754 365L755 366L754 365M545 366L546 367L545 366z"/>
<path style="fill:#a19da1; stroke:none;" d="M546.333 367.667L546.667 368.333L546.333 367.667M560 368L560 369L564 373L565 373L565 368L560 368z"/>
<path style="fill:#c85f56; stroke:none;" d="M756 368L757 369L756 368z"/>
<path style="fill:#a19da1; stroke:none;" d="M554 369L554 370L558 370L554 369z"/>
<path style="fill:#03b0ab; stroke:none;" d="M543 372L544 434L543.188 467L552 526L516 519L516 518L532 515C527.236 498.463 514.859 503.646 501 503.985C476.262 504.591 457.352 507.625 438 523.995C433.098 528.142 426.691 530.701 424.144 537C413.039 564.473 428.556 585.332 453 596.138C485.733 610.608 531.214 612.157 563 594.688C566.957 592.513 570.668 589.959 574 586.907C592.073 570.355 584 556.187 584 535C584 520.828 585.023 506.021 584.541 492C584.363 486.834 581.779 482.082 581.429 477C581.143 472.847 583.6 469.245 583.099 465C581.859 454.497 576.813 444.806 576.089 434C575.657 427.533 578.297 421.381 577.815 415C576.887 402.708 574.157 389.228 567.799 379C566.06 376.201 565.066 370.988 561.725 369.643C556.99 367.736 547.9 371.077 543 372z"/>
<path style="fill:#c85f56; stroke:none;" d="M777 369L778 370L777 369z"/>
<path style="fill:#a19da1; stroke:none;" d="M547 370L548 371L547 370M549 370L549 371L552 371L549 370z"/>
<path style="fill:#c85f56; stroke:none;" d="M758 371L759 372L758 371M774 371L775 372L774 371M760 374L761 375L760 374M767 376L768 377L767 376z"/>
<path style="fill:#1f1f23; stroke:none;" d="M1019 379C1018.69 416.606 996.568 455.646 976.333 486C938.379 542.937 894.355 595.645 846 644C813.913 676.087 778.002 706.339 731 710.83C661.719 717.45 604.611 677.182 542 656L542 655C558.79 655 575.718 651.825 592 647.87C596.106 646.873 605.345 646.417 607.821 642.683C612.833 635.124 608 614.987 608 606C570.138 601.11 532.437 613.629 494 608.844C483.051 607.481 473.289 603.266 463 599.657C459.178 598.316 453.4 594.849 449.278 596.618C440.155 600.532 440.562 624.253 442 632C410.493 631.997 379.583 628.408 350 642.486C317.883 657.77 295.354 687.789 260 697.116C185.098 716.877 86.3241 686.413 36.9205 627C19.0134 605.465 1.59616 575.883 1 547L0 547L0 712L1020 712L1020 477L1020 409L1019 379z"/>
<path style="fill:#c85f56; stroke:none;" d="M527.667 382.333L528.333 382.667L527.667 382.333z"/>
<path style="fill:#a19da1; stroke:none;" d="M527.333 383.667L527.667 384.333L527.333 383.667z"/>
<path style="fill:#f0f2f5; stroke:none;" d="M527 388L497 388L497 489L545 489L545 474L521 471L522 459C526.098 459.764 539.876 463.956 542.821 460.382C545.266 457.414 544 450.61 544 447L526 444L534 392L543 393L543 385C537.306 384.28 528.628 380.543 527 388z"/>
<path style="fill:#a19da1; stroke:none;" d="M532 383L532 384L535 384L532 383z"/>
<path style="fill:#c85f56; stroke:none;" d="M535 383L536 384L535 383z"/>
<path style="fill:#a19da1; stroke:none;" d="M539 384L539 385L542 385L539 384z"/>
<path style="fill:#c85f56; stroke:none;" d="M542 384L543 385L542 384z"/>
<path style="fill:#a19da1; stroke:none;" d="M496 387L496 489L497 489L497 388L527 388L496 387M574.667 389.333L575.333 389.667L574.667 389.333z"/>
<path style="fill:#c85f56; stroke:none;" d="M576 389L577 390L576 389z"/>
<path style="fill:#f0f2f5; stroke:none;" d="M574 390L577.812 414L576.09 433L583 465L584 465L595 393L574 390z"/>
<path style="fill:#a19da1; stroke:none;" d="M579 390L579 391L583 391L579 390M586 391L586 392L590 392L586 391M534.667 392.333L535.333 392.667L534.667 392.333M593.667 392.333L594.333 392.667L593.667 392.333z"/>
<path style="fill:#c85f56; stroke:none;" d="M534 393L526 444L544 447L543 412L542.397 395.434L534 393z"/>
<path style="fill:#a19da1; stroke:none;" d="M541.667 393.333L542.333 393.667L541.667 393.333M533.333 394.667L533.667 395.333L533.333 394.667M543 394L543 424L544 424L543 394M594 394L594 397L595 397L594 394z"/>
<path style="fill:#c85f56; stroke:none;" d="M594 397L595 398L594 397z"/>
<path style="fill:#a19da1; stroke:none;" d="M574 398L575 399L574 398M593 400L593 404L594 404L593 400M532.333 401.667L532.667 402.333L532.333 401.667M575 404L576 405L575 404M592 407L592 411L593 411L592 407M531.333 408.667L531.667 409.333L531.333 408.667M577.333 411.667L577.667 412.333L577.333 411.667M591 414L591 417L592 417L591 414M530 415L531 416L530 415z"/>
<path style="fill:#c85f56; stroke:none;" d="M591 417L592 418L591 417z"/>
<path style="fill:#a19da1; stroke:none;" d="M577 420L578 421L577 420M529.333 421.667L529.667 422.333L529.333 421.667M590 421L590 424L591 424L590 421z"/>
<path style="fill:#c85f56; stroke:none;" d="M590 424L591 425L590 424z"/>
<path style="fill:#a19da1; stroke:none;" d="M576 425L577 426L576 425M589 427L589 431L590 431L589 427M528.333 428.667L528.667 429.333L528.333 428.667M588 434L588 437L589 437L588 434M527 435L528 436L527 435M576.333 436.667L576.667 437.333L576.333 436.667z"/>
<path style="fill:#c85f56; stroke:none;" d="M588 437L589 438L588 437z"/>
<path style="fill:#a19da1; stroke:none;" d="M587 441L587 444L588 444L587 441M526 442L527 443L526 442M577.333 443.667L577.667 444.333L577.333 443.667M527 444L528 445L527 444z"/>
<path style="fill:#c85f56; stroke:none;" d="M587 444L588 445L587 444z"/>
<path style="fill:#a19da1; stroke:none;" d="M533.667 445.333L534.333 445.667L533.667 445.333M540 446L541 447L540 446M578 448L579 449L578 448M586 448L586 451L587 451L586 448z"/>
<path style="fill:#c85f56; stroke:none;" d="M586 451L587 452L586 451z"/>
<path style="fill:#a19da1; stroke:none;" d="M585 454L585 458L586 458L585 454M580 456L581 457L580 456M522 459L523 460L522 459z"/>
<path style="fill:#c85f56; stroke:none;" d="M523 459C518.325 474.385 532.639 471.883 544 474L543 462L523 459z"/>
<path style="fill:#a19da1; stroke:none;" d="M524 459L525 460L524 459M530.667 460.333L531.333 460.667L530.667 460.333M543.333 460.667L543.667 461.333L543.333 460.667M537.667 461.333L538.333 461.667L537.667 461.333M582 461L583 462L582 461M584 461L584 464L585 464L584 461z"/>
<path style="fill:#c85f56; stroke:none;" d="M584 464L585 465L584 464z"/>
<path style="fill:#a19da1; stroke:none;" d="M521.333 465.667L521.667 466.333L521.333 465.667M583.333 465.667L583.667 466.333L583.333 465.667M583 468L583 471L584 471L583 468M543 469L544 470L543 469M521 470L522 471L521 470M527 471L528 472L527 471z"/>
<path style="fill:#f0f2f5; stroke:none;" d="M582 471L581 479L582 479L582 471z"/>
<path style="fill:#c85f56; stroke:none;" d="M583 471L584 472L583 471z"/>
<path style="fill:#a19da1; stroke:none;" d="M534 472L535 473L534 472M540.667 473.333L541.333 473.667L540.667 473.333M544 473L545 474L544 473M581 473L582 474L581 473M582 475L582 478L583 478L582 475M545 476L546 477L545 476M545 479L546 480L545 479M287 502L287 503L448 503L448 504C442.723 507.083 444 513.58 444 519L458 511L454 503L462 504L448 502L415 502L287 502M525 502L525 503L527 505L528 505L525 502z"/>
<path style="fill:#c85f56; stroke:none;" d="M527 502L527 503L537 503L527 502M611 502L612 503L611 502z"/>
<path style="fill:#f0f2f5; stroke:none;" d="M454 503L458 510L460 510L461 503L454 503M528 503L530 510L535 503L528 503z"/>
<path style="fill:#a19da1; stroke:none;" d="M535.333 503.667L535.667 504.333L535.333 503.667z"/>
<path style="fill:#c85f56; stroke:none;" d="M461 504L462 505L461 504z"/>
<path style="fill:#a19da1; stroke:none;" d="M534 505L535 506L534 505M528 506L529 507L528 506z"/>
<path style="fill:#c85f56; stroke:none;" d="M534 506L535 507L534 506z"/>
<path style="fill:#a19da1; stroke:none;" d="M533 507L534 508L533 507M529 508L530 509L529 508M532 508L533 509L532 508M460 509L461 510L460 509M531 509L532 510L531 509M530 510L531 511L530 510z"/>
<path style="fill:#c85f56; stroke:none;" d="M610 516L611 517L610 516z"/>
<path style="fill:#a19da1; stroke:none;" d="M610 517L607 578L618.5 576.75L620 564L620 535L619.278 523.028L610 517M443 519L444 520L443 519M495 519L495 520L508 520L495 519z"/>
<path style="fill:#1f1f23; stroke:none;" d="M512 519L512 520L515 520L512 519z"/>
<path style="fill:#a19da1; stroke:none;" d="M442 520L443 521L442 520M491.667 520.333L492.333 520.667L491.667 520.333z"/>
<path style="fill:#f0f2f5; stroke:none;" d="M469 538C476.628 535.607 478.527 528.896 485.004 525.086C496.114 518.549 509.384 522.604 521 525C504.777 512.737 478.441 521.667 469 538z"/>
<path style="fill:#a19da1; stroke:none;" d="M510 520L510 521L513 521L510 520M488.667 521.333L489.333 521.667L488.667 521.333M497 521L497 522L502 522L497 521M514.667 521.333L515.333 521.667L514.667 521.333M486 522L487 523L486 522M491.667 522.333L492.333 522.667L491.667 522.333z"/>
<path style="fill:#c85f56; stroke:none;" d="M466 548C458.593 551.736 461.364 559.6 463.695 566C468.569 579.381 476.78 591.299 491 595.56C499.792 598.195 522.413 602.059 530.57 596.682C534.58 594.039 534.823 585.263 536.425 581C542.177 565.699 553.082 545.088 535.999 532.789C524.518 524.522 500.428 517.192 487.015 524.442C482.272 527.006 481.376 531.995 477.61 535.351C472.342 540.044 464.765 538.874 466 548z"/>
<path style="fill:#a19da1; stroke:none;" d="M506 522L506 523L510 523L506 522M516.667 522.333L517.333 522.667L516.667 522.333M483.667 523.333L484.333 523.667L483.667 523.333M488 523L489 524L488 523M512 523L512 524L515 524L512 523M519 523L520 524L519 523M482 524L483 525L482 524M485.667 524.333L486.333 524.667L485.667 524.333M516 524L516 525L519 525L516 524M520 526L523 526L522 524L520 526M436 525L437 526L436 525M480 525L481 526L480 525M467 539L467 540L479 536L480 534L485 525L467 539M435 526L436 527L435 526M479 526L480 527L479 526M523.667 526.333L524.333 526.667L523.667 526.333M477 527L478 528L477 527M526 527L527 528L526 527M432 528L433 529L432 528M476 528L477 529L476 528M528 528L529 529L528 528M475 529L476 530L475 529M530 529L531 530L530 529M428 530L429 531L428 530M474 530L475 531L474 530M532 530L533 531L532 530M427 531L428 532L427 531M473 531L474 532L473 531M426 532L427 533L426 532M472 532L473 533L472 532z"/>
<path style="fill:#f0f2f5; stroke:none;" d="M479 532L480 533L479 532z"/>
<path style="fill:#a19da1; stroke:none;" d="M535 532L536 533L535 532M471 533L472 534L471 533z"/>
<path style="fill:#f0f2f5; stroke:none;" d="M478 534L479 535L478 534z"/>
<path style="fill:#a19da1; stroke:none;" d="M538 534L539 535L538 534M470 535L471 536L470 535M539 535L540 536L539 535M469 536L470 537L469 536M540 536L541 537L540 536z"/>
<path style="fill:#c85f56; stroke:none;" d="M609.333 536.667L609.667 537.333L609.333 536.667z"/>
<path style="fill:#a19da1; stroke:none;" d="M541 537L542 538L541 537M423 538L424 539L423 538M543 540L544 541L543 540M466 541L467 542L466 541M422.333 542.667L422.667 543.333L422.333 542.667M465 543L466 544L465 543M544 543L545 544L544 543M465 546L464 548L466 548L465 546M545 547L545 556L546 556L545 547M463 548L464 549L463 548M462 549L463 550L462 549M460 553L460 557L461 557L460 553z"/>
<path style="fill:#c85f56; stroke:none;" d="M608.333 554.667L608.667 555.333L608.333 554.667z"/>
<path style="fill:#a19da1; stroke:none;" d="M461.333 559.667L461.667 560.333L461.333 559.667M544.333 559.667L544.667 560.333L544.333 559.667M462 562L463 563L462 562M543 563L544 564L543 563M463 565L464 566L463 565M542 566L543 567L542 566M464 568L465 569L464 568M541 568L542 569L541 568M465 570L466 571L465 570M422 571L423 572L422 571M540 571L541 572L540 571M466.333 572.667L466.667 573.333L466.333 572.667z"/>
<path style="fill:#c85f56; stroke:none;" d="M607.333 572.667L607.667 573.333L607.333 572.667z"/>
<path style="fill:#a19da1; stroke:none;" d="M539 573L540 574L539 573M467.333 574.667L467.667 575.333L467.333 574.667M424 575L425 576L424 575M538 575L539 576L538 575M468 576L469 577L468 576M469 578L470 579L469 578M537 578L538 579L537 578z"/>
<path style="fill:#c85f56; stroke:none;" d="M606 578L607 579L606 578M604 579L605 580L604 579z"/>
<path style="fill:#a19da1; stroke:none;" d="M605 579L606 580L605 579M470 580L471 581L470 580M536.333 580.667L536.667 581.333L536.333 580.667M602 580L603 581L602 580M471 581L472 582L471 581z"/>
<path style="fill:#c85f56; stroke:none;" d="M600 581L601 582L600 581z"/>
<path style="fill:#a19da1; stroke:none;" d="M601 581L593 584L593 603L587 603L587 604L603 605L601 581M535 583L536 584L535 583z"/>
<path style="fill:#c85f56; stroke:none;" d="M595 583L596 584L595 583M592 584L593 585L592 584z"/>
<path style="fill:#a19da1; stroke:none;" d="M434 585L435 586L434 585M474 585L475 586L474 585M590 585L591 586L590 585z"/>
<path style="fill:#f0f2f5; stroke:none;" d="M474 603L474 604C493.554 608.483 512.817 611.293 533 609.911C553.022 608.539 573.001 603.859 593 603L593 585C574.787 589.214 558.927 599.104 541 603.346C517.92 608.807 497.068 605.979 474 603z"/>
<path style="fill:#a19da1; stroke:none;" d="M475 586L476 587L475 586M534.333 586.667L534.667 587.333L534.333 586.667M587 586L588 587L587 586M437 587L438 588L437 587M476 587L477 588L476 587z"/>
<path style="fill:#c85f56; stroke:none;" d="M583 587L584 588L583 587z"/>
<path style="fill:#a19da1; stroke:none;" d="M584 587L585 588L584 587M477 588L478 589L477 588M580.667 588.333L581.333 588.667L580.667 588.333M440 589L441 590L440 589z"/>
<path style="fill:#c85f56; stroke:none;" d="M576 589L577 590L576 589z"/>
<path style="fill:#a19da1; stroke:none;" d="M577 589L578 590L577 589M480 590L481 591L480 590z"/>
<path style="fill:#c85f56; stroke:none;" d="M572 590L573 591L572 590z"/>
<path style="fill:#a19da1; stroke:none;" d="M573.667 590.333L574.333 590.667L573.667 590.333M481 591L482 592L481 591M533.333 591.667L533.667 592.333L533.333 591.667M568.667 591.333L569.333 591.667L568.667 591.333M445 592L446 593L445 592M483 592L484 593L483 592M566 592L567 593L566 592M447 593L447 597L452 596L452 595L447 593M485 593L486 594L485 593M487 594L488 595L487 594M490 595L491 596L490 595M532 595L533 596L532 595M561 595L562 596L561 595M493.667 596.333L494.333 596.667L493.667 596.333M559 596L560 597L559 596M498.667 597.333L499.333 597.667L498.667 597.333M529 597L530 598L529 597M557 597L558 598L557 597M446.333 598.667L446.667 599.333L446.333 598.667M507 598L507 599L521 599L507 598M555 598L556 599L555 598M550 600L551 601L550 600M445 601L446 602L445 601M468.667 601.333L469.333 601.667L468.667 601.333M547 601L548 602L547 601z"/>
<path style="fill:#c85f56; stroke:none;" d="M445 602L446 603L445 602z"/>
<path style="fill:#a19da1; stroke:none;" d="M470 602L471 603L470 602z"/>
<path style="fill:#f0f2f5; stroke:none;" d="M471 602L472 603L471 602z"/>
<path style="fill:#a19da1; stroke:none;" d="M472 602L472 604L474 604L472 602M544 602L545 603L544 602M477 603L478 604L477 603M540 603L541 604L540 603M444 604L445 605L444 604M475.667 604.333L476.333 604.667L475.667 604.333M482 604L483 605L482 604M535 604L536 605L535 604M580 604L580 605L583 605L580 604z"/>
<path style="fill:#c85f56; stroke:none;" d="M599 604L600 605L599 604z"/>
<path style="fill:#a19da1; stroke:none;" d="M478.667 605.333L479.333 605.667L478.667 605.333M488.667 605.333L489.333 605.667L488.667 605.333M529.667 605.333L530.333 605.667L529.667 605.333M573 605L573 606L576 606L573 605z"/>
<path style="fill:#c85f56; stroke:none;" d="M576 605L577 606L576 605M604 605L605 606L604 605z"/>
<path style="fill:#a19da1; stroke:none;" d="M605.667 605.333L606.333 605.667L605.667 605.333M482.667 606.333L483.333 606.667L482.667 606.333M498 606L498 607L502 607L498 606M517 606L517 607L523 607L517 606M566 606L566 607L570 607L566 606M443 607L444 608L443 607M486 607L486 608L489 608L486 607M559 607L559 608L562 608L559 607z"/>
<path style="fill:#c85f56; stroke:none;" d="M562 607L563 608L562 607M491 608L492 609L491 608z"/>
<path style="fill:#a19da1; stroke:none;" d="M492 608L492 609L495 609L492 608M549 608L549 609L554 609L549 608z"/>
<path style="fill:#c85f56; stroke:none;" d="M554 608L555 609L554 608M499 609L500 610L499 609z"/>
<path style="fill:#a19da1; stroke:none;" d="M500 609L500 610L505 610L500 609M536 609L536 610L543 610L536 609z"/>
<path style="fill:#c85f56; stroke:none;" d="M543 609L544 610L543 609z"/>
<path style="fill:#a19da1; stroke:none;" d="M442.333 610.667L442.667 611.333L442.333 610.667z"/>
<path style="fill:#c85f56; stroke:none;" d="M514 610L514 611L525 611L514 610z"/>
<path style="fill:#a19da1; stroke:none;" d="M441 614L441 617L442 617L441 614z"/>
<path style="fill:#c85f56; stroke:none;" d="M441 617L442 618L441 617z"/>
<path style="fill:#a19da1; stroke:none;" d="M608 620L608 625L609 625L608 620z"/>
<path style="fill:#c85f56; stroke:none;" d="M608 625L609 626L608 625z"/>
<path style="fill:#a19da1; stroke:none;" d="M441 629L441 632L442 632L441 629M609 633L610 634L609 633M609 637L609 640L610 640L609 637M608 642L609 643L608 642M607 644L608 645L607 644z"/>
<path style="fill:#c85f56; stroke:none;" d="M601 645L602 646L601 645z"/>
<path style="fill:#a19da1; stroke:none;" d="M602.667 645.333L603.333 645.667L602.667 645.333z"/>
<path style="fill:#c85f56; stroke:none;" d="M597 646L598 647L597 646z"/>
<path style="fill:#a19da1; stroke:none;" d="M598.667 646.333L599.333 646.667L598.667 646.333z"/>
<path style="fill:#c85f56; stroke:none;" d="M593 647L594 648L593 647z"/>
<path style="fill:#a19da1; stroke:none;" d="M594.667 647.333L595.333 647.667L594.667 647.333z"/>
<path style="fill:#c85f56; stroke:none;" d="M589 648L590 649L589 648z"/>
<path style="fill:#a19da1; stroke:none;" d="M590.667 648.333L591.333 648.667L590.667 648.333z"/>
<path style="fill:#c85f56; stroke:none;" d="M584 649L585 650L584 649z"/>
<path style="fill:#a19da1; stroke:none;" d="M585.667 649.333L586.333 649.667L585.667 649.333M580.667 650.333L581.333 650.667L580.667 650.333M575.667 651.333L576.333 651.667L575.667 651.333z"/>
<path style="fill:#c85f56; stroke:none;" d="M568 652L569 653L568 652z"/>
<path style="fill:#a19da1; stroke:none;" d="M569 652L569 653L572 653L569 652M562 653L562 654L565 654L562 653M553 654L553 655L558 655L553 654z"/>
<path style="fill:#c85f56; stroke:none;" d="M542 655L543 656L542 655z"/>
<path style="fill:#a19da1; stroke:none;" d="M543 655L543 656L549 656L543 655z"/>
</svg>
